<?xml version="1.0" standalone="no"?>
<!DOCTYPE svg PUBLIC "-//W3C//DTD SVG 20010904//EN"
 "http://www.w3.org/TR/2001/REC-SVG-20010904/DTD/svg10.dtd">
<svg version="1.0" xmlns="http://www.w3.org/2000/svg"
 width="75.000000pt" height="75.000000pt" viewBox="0 0 75.000000 75.000000"
 preserveAspectRatio="xMidYMid meet">
<metadata>
Created by potrace 1.14, written by Peter Selinger 2001-2017
</metadata>
<g transform="translate(0.000000,75.000000) scale(0.100000,-0.100000)"
fill="#000000" stroke="none">
<path d="M236 738 c3 -5 0 -8 -5 -8 -6 0 -11 -8 -11 -17 -1 -10 -7 -35 -14
-55 -12 -33 -12 -38 1 -38 8 0 11 -5 8 -10 -7 -11 23 -9 43 3 6 5 12 4 12 -1
0 -4 36 -8 81 -7 44 1 82 -2 84 -5 2 -4 -9 -21 -25 -39 -17 -18 -30 -36 -30
-42 0 -5 -5 -9 -11 -9 -5 0 -7 -5 -4 -10 3 -6 -1 -13 -9 -16 -9 -3 -16 -10
-16 -16 0 -5 -7 -16 -15 -25 -8 -8 -13 -19 -10 -24 4 -5 -1 -9 -9 -9 -9 0 -16
-7 -16 -15 0 -8 -4 -15 -8 -15 -5 0 -15 -12 -23 -27 -8 -16 -16 -30 -19 -33
-3 -3 -18 -24 -34 -47 -16 -24 -33 -43 -38 -43 -5 0 -6 -5 -3 -10 3 -6 1 -10
-5 -10 -6 0 -9 -4 -6 -9 3 -5 -1 -12 -10 -15 -10 -4 -14 -12 -10 -23 4 -10 4
-15 1 -11 -15 15 -67 -62 -55 -82 4 -6 5 -21 3 -31 -5 -17 6 -24 31 -20 4 1
15 -4 24 -11 13 -11 14 -11 8 0 -6 11 -1 13 25 11 19 -2 40 -8 48 -13 11 -8
13 -8 8 0 -9 15 85 14 95 -1 5 -7 8 -6 8 1 0 14 108 14 129 0 10 -6 12 -6 7 2
-4 7 -1 12 9 12 10 0 13 -5 9 -12 -6 -9 -3 -9 9 1 9 7 23 11 32 8 8 -4 21 1
30 9 14 15 16 21 18 62 1 9 6 20 12 24 6 5 5 8 -4 8 -11 0 -11 3 -1 15 14 17
20 16 -127 19 -51 2 -95 5 -99 8 -7 7 24 58 46 75 8 6 15 16 15 22 0 5 9 17
20 26 11 9 13 14 5 10 -8 -4 -6 1 4 9 11 9 16 16 10 16 -5 0 3 11 18 24 15 12
25 26 21 30 -3 3 -2 6 4 6 6 0 13 8 17 18 7 23 27 53 47 72 9 8 14 21 12 28
-3 6 0 12 5 12 6 0 14 9 17 20 4 11 11 18 16 15 5 -4 10 1 10 9 3 31 4 35 17
47 6 7 12 21 12 32 0 10 4 16 9 13 10 -7 9 13 -2 31 -4 6 -3 14 3 18 13 8 13
45 -1 45 -5 0 -7 -6 -4 -12 4 -7 1 -6 -7 2 -11 12 -48 15 -215 15 -111 0 -199
-3 -197 -7z"/>
<path d="M65 49 c-4 -6 -5 -12 -2 -15 2 -3 7 2 10 11 7 17 1 20 -8 4z"/>
</g>
</svg>
