<svg width="39" height="45" viewBox="0 0 39 45" fill="none" xmlns="http://www.w3.org/2000/svg">
<path d="M5.57143 19.6779H6.74665C8.89688 24.5333 13.7893 27.9279 19.5 27.9279C25.2107 27.9279 30.1031 24.5333 32.2533 19.6779H33.4286C34.1946 19.6779 34.8214 19.0591 34.8214 18.3029V10.0529C34.8214 9.29661 34.1946 8.67786 33.4286 8.67786H32.2533C30.1031 3.82239 25.2107 0.427856 19.5 0.427856C13.7893 0.427856 8.89688 3.82239 6.74665 8.67786H5.57143C4.80536 8.67786 4.17857 9.29661 4.17857 10.0529V18.3029C4.17857 19.0591 4.80536 19.6779 5.57143 19.6779ZM9.05357 12.1154C9.05357 10.2161 10.9252 8.67786 13.2321 8.67786H25.7679C28.0748 8.67786 29.9464 10.2161 29.9464 12.1154V14.1779C29.9464 18.7325 26.2031 22.4279 21.5893 22.4279H17.4107C12.7969 22.4279 9.05357 18.7325 9.05357 14.1779V12.1154ZM15.3214 18.3029L16.3661 15.2091L19.5 14.1779L16.3661 13.1466L15.3214 10.0529L14.2768 13.1466L11.1429 14.1779L14.2768 15.2091L15.3214 18.3029ZM28.5188 28.0482C25.9158 29.7068 22.8254 30.6779 19.5 30.6779C16.1746 30.6779 13.0842 29.7068 10.4813 28.0482C4.60513 28.6583 0 33.5138 0 39.4779V40.3029C0 42.5802 1.87165 44.4279 4.17857 44.4279H11.1429V38.9279C11.1429 37.4068 12.3877 36.1779 13.9286 36.1779H25.0714C26.6123 36.1779 27.8571 37.4068 27.8571 38.9279V44.4279H34.8214C37.1283 44.4279 39 42.5802 39 40.3029V39.4779C39 33.5138 34.3949 28.6583 28.5188 28.0482ZM23.6786 38.9279C22.9125 38.9279 22.2857 39.5466 22.2857 40.3029C22.2857 41.0591 22.9125 41.6779 23.6786 41.6779C24.4446 41.6779 25.0714 41.0591 25.0714 40.3029C25.0714 39.5466 24.4446 38.9279 23.6786 38.9279ZM15.3214 38.9279C14.5554 38.9279 13.9286 39.5466 13.9286 40.3029V44.4279H16.7143V40.3029C16.7143 39.5466 16.0875 38.9279 15.3214 38.9279Z" fill="white"/>
</svg>
