<svg width="41" height="49" viewBox="0 0 41 49" fill="none" xmlns="http://www.w3.org/2000/svg">
<path d="M31.1721 2.26386C31.1726 1.90091 31.0815 1.54593 30.9103 1.24394C30.739 0.941944 30.4954 0.706533 30.2103 0.567548C29.9251 0.428564 29.6113 0.392264 29.3085 0.463252C29.0058 0.53424 28.7278 0.709319 28.5098 0.966292L22.2751 8.29719C22.1305 8.4677 22.0158 8.67007 21.9377 8.89271C21.8596 9.11536 21.8196 9.35392 21.82 9.59476V19.8324L19.51 22.5448C19.0479 22.4006 18.5639 22.3831 18.0951 22.4935C17.6263 22.604 17.1854 22.8395 16.8062 23.1819C16.427 23.5244 16.1198 23.9646 15.9081 24.4686C15.6964 24.9727 15.586 25.5271 15.5853 26.0893C15.5859 26.6108 15.6812 27.1261 15.8648 27.6008C16.0483 28.0756 16.3159 28.4988 16.6496 28.8422C16.9834 29.1857 17.3756 29.4414 17.8001 29.5924C18.2246 29.7434 18.6717 29.7861 19.1113 29.7177C19.551 29.6494 19.9732 29.4715 20.3498 29.1959C20.7263 28.9204 21.0485 28.5535 21.2949 28.1199C21.5412 27.6862 21.706 27.1958 21.7783 26.6813C21.8506 26.1667 21.8287 25.64 21.714 25.1363L24.024 22.4238H32.7307C32.9356 22.4243 33.1385 22.3772 33.3278 22.2854C33.5172 22.1936 33.6893 22.0588 33.8343 21.8887L40.069 14.5578C40.2876 14.3015 40.4365 13.9746 40.4968 13.6187C40.5572 13.2627 40.5263 12.8937 40.4081 12.5584C40.2899 12.2231 40.0897 11.9366 39.8329 11.7353C39.576 11.534 39.2741 11.4268 38.9655 11.4275H31.1721V2.26386ZM37.2322 23.0763C37.7686 27.6404 37.0724 32.2873 35.2418 36.3611C33.4112 40.4349 30.5387 43.7298 27.0298 45.7807C23.5209 47.8316 19.5528 48.5349 15.6856 47.7913C11.8185 47.0477 8.24759 44.8949 5.47704 41.6366C2.7065 38.3783 0.876234 34.1791 0.244606 29.6319C-0.387022 25.0847 0.211891 20.4191 1.9568 16.2936C3.70171 12.1681 6.50449 8.79126 9.96949 6.63961C13.4345 4.48796 17.3867 3.67023 21.2682 4.30185L20.0743 5.70572C19.6396 6.21622 19.2947 6.82245 19.0593 7.48975C18.824 8.15705 18.7028 8.87235 18.7026 9.59476C15.9281 9.59476 13.216 10.5621 10.909 12.3746C8.60214 14.187 6.80412 16.7631 5.74237 19.7771C4.68061 22.7911 4.40281 26.1076 4.94409 29.3072C5.48537 32.5068 6.82141 35.4459 8.78328 37.7527C10.7451 40.0595 13.2447 41.6304 15.9659 42.2669C18.6871 42.9033 21.5077 42.5767 24.071 41.3282C26.6343 40.0798 28.8252 37.9656 30.3666 35.2531C31.908 32.5406 32.7307 29.3516 32.7307 26.0893C33.9705 26.088 35.1591 25.5079 36.0351 24.4765L37.2322 23.0763ZM18.7026 13.2602C16.5447 13.2602 14.4352 14.0126 12.641 15.4223C10.8467 16.832 9.44824 18.8356 8.62243 21.1798C7.79662 23.524 7.58055 26.1035 8.00155 28.5921C8.42254 31.0807 9.46169 33.3666 10.9876 35.1608C12.5135 36.955 14.4576 38.1768 16.5741 38.6718C18.6905 39.1668 20.8843 38.9128 22.878 37.9418C24.8717 36.9708 26.5757 35.3265 27.7746 33.2167C28.9735 31.107 29.6134 28.6266 29.6134 26.0893H25.3146L24.9249 26.5475C24.85 27.9556 24.431 29.3084 23.7183 30.4436C23.0057 31.5787 22.0296 32.4479 20.9072 32.9468C19.7847 33.4458 18.5637 33.5533 17.3906 33.2564C16.2175 32.9596 15.1422 32.271 14.2937 31.2734C13.4452 30.2757 12.8596 29.0113 12.6072 27.632C12.3547 26.2526 12.4462 24.8169 12.8705 23.4972C13.2948 22.1774 14.0341 21.0297 14.9994 20.1917C15.9648 19.3538 17.1154 18.8612 18.313 18.773L18.7026 18.3149V13.2602Z" fill="white"/>
</svg>
