<svg width="37" height="49" viewBox="0 0 37 49" fill="none" xmlns="http://www.w3.org/2000/svg">
<path d="M14.5559 3.98256C13.2833 6.44773 12.5536 9.74458 12.5536 13.0279L12.5536 34.4533C12.0122 34.8247 11.5643 35.2472 11.2321 35.7073L11.2321 20.2279C8.73357 31.2411 0 31.9726 0 41.2276L0 41.2279H10.5714V42.4279H0C0 44.4161 2.36651 46.0279 5.28571 46.0279H10.5714C10.5714 47.7676 11.4 48.4279 12.5536 48.4279H15.8571C17.012 48.4279 17.8393 47.7664 17.8393 46.0279H19.1607C19.1607 47.7676 19.9893 48.4279 21.1429 48.4279H24.4464C25.6013 48.4279 26.4286 47.7664 26.4286 46.0279H31.7143C34.6335 46.0279 37 44.4161 37 42.4279H26.4286V41.2279H37V41.2276C37 31.9726 28.2664 31.2411 25.7679 20.2279V35.7074C25.4357 35.2473 24.9878 34.8248 24.4464 34.4534L24.4464 13.0279C24.4464 9.74458 23.7167 6.44773 22.4441 3.98256C21.2952 1.75671 19.8208 0.427856 18.5 0.427856C17.1792 0.427856 15.7048 1.75671 14.5559 3.98256ZM21.8036 11.8279C21.8036 11.987 21.734 12.1396 21.6101 12.2521C21.4861 12.3646 21.3181 12.4279 21.1429 12.4279H15.8571C15.6819 12.4279 15.5139 12.3646 15.3899 12.2521C15.266 12.1396 15.1964 11.987 15.1964 11.8279C15.1964 9.43468 21.8036 9.43221 21.8036 11.8279Z" fill="white"/>
</svg>
